<?xml version="1.0" encoding="UTF-8"?> <svg xmlns="http://www.w3.org/2000/svg" id="a" viewBox="0 0 160.002 30.7692"><defs><style>.b{fill:#fff;}.c{fill:#ff2b85;}</style></defs><path class="c" d="M24.6694,30.7692H6.612c-1.752-.0051-3.4308-.6919-4.6697-1.9105C.7035,27.6401,.0052,25.9888,0,24.2654V6.5038C.0052,4.7804,.7035,3.1291,1.9424,1.9105,3.1812,.692,4.86,.0051,6.612,0H24.6694c1.752,.0051,3.4308,.692,4.6697,1.9105,1.2388,1.2186,1.9371,2.8699,1.9423,4.5932V24.2654c-.0047,1.7235-.7028,3.3751-1.9418,4.5938s-2.9181,1.9054-4.6702,1.91Z"></path><path class="b" d="M11.3018,11.8088c-.1219-.0003-.2411,.0349-.3426,.1012-.1014,.0664-.1806,.1609-.2274,.2715-.0468,.1107-.0591,.2325-.0355,.3501,.0237,.1175,.0823,.2255,.1685,.3103,.0862,.0847,.196,.1424,.3155,.1657s.2434,.0111,.3559-.0349c.1124-.0461,.2085-.1239,.276-.2237,.0674-.0998,.1032-.2171,.1028-.337,0-.1599-.0646-.3134-.1796-.4265s-.271-.1767-.4336-.1767h0Zm0,0c-.1219-.0003-.2411,.0349-.3426,.1012-.1014,.0664-.1806,.1609-.2274,.2715-.0468,.1107-.0591,.2325-.0355,.3501,.0237,.1175,.0823,.2255,.1685,.3103,.0862,.0847,.196,.1424,.3155,.1657s.2434,.0111,.3559-.0349c.1124-.0461,.2085-.1239,.276-.2237,.0674-.0998,.1032-.2171,.1028-.337,0-.1599-.0646-.3134-.1796-.4265s-.271-.1767-.4336-.1767h0Zm0,0c-.1219-.0003-.2411,.0349-.3426,.1012-.1014,.0664-.1806,.1609-.2274,.2715-.0468,.1107-.0591,.2325-.0355,.3501,.0237,.1175,.0823,.2255,.1685,.3103,.0862,.0847,.196,.1424,.3155,.1657s.2434,.0111,.3559-.0349c.1124-.0461,.2085-.1239,.276-.2237,.0674-.0998,.1032-.2171,.1028-.337,0-.1599-.0646-.3134-.1796-.4265s-.271-.1767-.4336-.1767h0Zm8.8134,0c-.1217,0-.2408,.0356-.342,.1022-.1012,.0665-.18,.1612-.2266,.2719-.0465,.1106-.0585,.2324-.0346,.3498,.0239,.1175,.0827,.2253,.1689,.3099,.0862,.0845,.196,.142,.3155,.1651,.1195,.0232,.2432,.0109,.3556-.0352,.1124-.0461,.2083-.124,.2757-.2237,.0674-.0998,.1031-.217,.1027-.3368,0-.0793-.0159-.1579-.0468-.2312-.031-.0733-.0763-.1399-.1335-.196-.0571-.056-.125-.1004-.1996-.1306s-.1546-.0456-.2353-.0454h0Zm0,0c-.1217,0-.2408,.0356-.342,.1022-.1012,.0665-.18,.1612-.2266,.2719-.0465,.1106-.0585,.2324-.0346,.3498,.0239,.1175,.0827,.2253,.1689,.3099,.0862,.0845,.196,.142,.3155,.1651,.1195,.0232,.2432,.0109,.3556-.0352,.1124-.0461,.2083-.124,.2757-.2237,.0674-.0998,.1031-.217,.1027-.3368,0-.0793-.0159-.1579-.0468-.2312-.031-.0733-.0763-.1399-.1335-.196-.0571-.056-.125-.1004-.1996-.1306s-.1546-.0456-.2353-.0454h0Zm-8.8134,0c-.1219-.0003-.2411,.0349-.3426,.1012-.1014,.0664-.1806,.1609-.2274,.2715-.0468,.1107-.0591,.2325-.0355,.3501,.0237,.1175,.0823,.2255,.1685,.3103,.0862,.0847,.196,.1424,.3155,.1657s.2434,.0111,.3559-.0349c.1124-.0461,.2085-.1239,.276-.2237,.0674-.0998,.1032-.2171,.1028-.337,0-.1599-.0646-.3134-.1796-.4265s-.271-.1767-.4336-.1767h0Zm16.0977,3.0431c0-.1585-.0158-.3132-.0315-.4659,0-.0387,0-.0696-.0118-.1063-.0216-.1798-.0432-.3558-.0688-.5356-.038-.2281-.0812-.4562-.1297-.6844-.0334-.1489-.0708-.2977-.1081-.4447-.0491-.1933-.1022-.3673-.1572-.5471-.059-.1798-.1239-.3596-.1966-.5355-.0727-.176-.1337-.35-.2103-.524-.1456-.3466-.311-.6848-.4953-1.013-.1794-.3283-.3762-.6471-.5897-.9551,.0225-.0163,.0424-.0359,.059-.058,.0532-.0413,.102-.088,.1454-.1392h0c.0213-.0198,.041-.0411,.059-.0638,.0491-.0541,.0983-.1063,.1415-.1643,.0196-.0218,.0373-.045,.0531-.0696,.0532-.0677,.1018-.1387,.1454-.2127,.0083-.0129,.0175-.0252,.0276-.0367l.0157-.0271s0-.0155,.0118-.0213c.0373-.0735,.0806-.1469,.112-.2223,.0508-.0965,.0923-.1975,.1238-.3016,.016-.0395,.0285-.0802,.0374-.1218,.0118-.0367,.0216-.0754,.0334-.1179,.0135-.045,.024-.0909,.0314-.1373,.0195-.0768,.0326-.155,.0394-.2339,.002-.0122,.002-.0246,0-.0367,0-.0309,0-.058,.0117-.0889,0-.0793,.0099-.1643,.0099-.2494,.0026-.8092-.3213-1.5863-.9006-2.1608-.5793-.5745-1.3666-.8995-2.1892-.9036-.0979-.0006-.1957,.0045-.2929,.0155-.0373,0-.0806,0-.1179,.0155-.0781,.0072-.1556,.0195-.232,.0367-.093,.018-.1849,.0412-.2751,.0696l-.059,.0155c-.0806,.0271-.1514,.0541-.226,.0851h-.0158c-.0899,.0355-.1766,.0782-.2594,.1276-.0751,.0374-.1474,.08-.2162,.1276-.0199,.0088-.0379,.0213-.0531,.0367-.0693,.0424-.135,.0903-.1965,.1431-.0286,.0126-.0531,.0327-.0708,.058-.0568,.0422-.1106,.0881-.1612,.1373-.0247,.0202-.0465,.0436-.0648,.0696h0c-.0529,.052-.1028,.1069-.1494,.1643-.0641,.0739-.1239,.1514-.1789,.232-.0138,.015-.0263,.0312-.0373,.0483-.1789-.0851-.3558-.1643-.5347-.2339-.1788-.0696-.3557-.1431-.5385-.2069-.114-.0406-.2319-.0831-.3499-.116-.1004-.0405-.2035-.074-.3086-.1005-.1022-.0309-.1965-.058-.3125-.0851-.0747-.0213-.1454-.0425-.2201-.058-.0747-.0155-.1966-.0483-.3086-.0696-.1455-.0367-.2909-.0638-.4403-.0889-.0518-.0122-.1043-.0212-.1572-.0271-.1356-.0213-.2752-.0425-.4148-.058-.0805-.0155-.1631-.0213-.2437-.0329-.1828-.0213-.3656-.0367-.5543-.0425-.0196-.0017-.0393-.0017-.0589,0-.228-.0174-.4482-.0213-.6742-.0213s-.4481,0-.6742,.0213c-.0196-.0017-.0393-.0017-.0589,0-.1966,0-.3735,.0213-.5563,.0425-.0806,.0116-.1612,.0174-.2417,.0329-.1416,.0155-.2811,.0367-.4167,.058-.0523,.0059-.1042,.0149-.1553,.0271-.1455,.0251-.2968,.0522-.4364,.0889-.1053,.018-.2096,.0412-.3125,.0696-.0766,.0155-.1454,.0367-.2221,.058-.1081,.0271-.2103,.0541-.3125,.0851-.1045,.0265-.2069,.0601-.3066,.1005-.1199,.0329-.2379,.0754-.3519,.116-.1828,.0638-.3597,.1334-.5385,.2069-.1789,.0735-.3558,.1489-.5327,.2339-.0117-.0171-.0249-.0333-.0393-.0483-.0537-.0811-.1128-.1586-.1769-.232-.0473-.0575-.0978-.1123-.1513-.1643h0c-.0183-.026-.0402-.0494-.0649-.0696-.0501-.0497-.104-.0956-.1612-.1373-.0178-.0253-.0422-.0454-.0708-.058-.0615-.0529-.1272-.1007-.1966-.1431-.0162-.015-.0348-.0274-.055-.0367-.0679-.048-.1395-.0907-.2142-.1276-.083-.049-.1698-.0917-.2594-.1276h-.0157c-.0766-.0309-.1454-.058-.228-.0851l-.059-.0155c-.0903-.0284-.1822-.0517-.2752-.0696-.0763-.0175-.1538-.0298-.2319-.0367-.0373-.0097-.0806-.0097-.1179-.0155-.0985-.0112-.1976-.0163-.2968-.0155-.4083-.0005-.8126,.0781-1.1899,.2314-.3774,.1533-.7203,.3782-1.0092,.6618-.2889,.2837-.5182,.6206-.6748,.9915-.1565,.3709-.2372,.7685-.2375,1.17,0,.0851,0,.1701,.0118,.2494,0,.0309,0,.058,.0098,.0889-.003,.0121-.003,.0247,0,.0367,.0085,.0821,.023,.1635,.0432,.2436,.0081,.0464,.0193,.0923,.0334,.1373,0,.0425,.0216,.0812,.0314,.1179,.0098,.0413,.0223,.082,.0373,.1218,.0332,.1035,.0747,.2044,.1238,.3016,.0334,.0754,.0767,.1489,.114,.2223,0,0,0,.0174,.0098,.0213,.0098,.0039,.0118,.0174,.0177,.0271,.0094,.0116,.018,.0239,.0256,.0367,.0437,.074,.0923,.145,.1454,.2127,.0171,.0241,.0355,.0473,.055,.0696,.0432,.058,.0924,.1102,.1395,.1643,.018,.0227,.0377,.044,.059,.0638h0c.0445,.0503,.0932,.0968,.1455,.1392,.0166,.0221,.0365,.0417,.059,.058-.2127,.3084-.4095,.6272-.5897,.9551-.1844,.3282-.3497,.6664-.4953,1.013-.0747,.174-.1455,.35-.2103,.524s-.1297,.3557-.1965,.5355c-.0531,.1798-.1081,.3596-.1572,.5471-.0374,.147-.0747,.2958-.1061,.4447-.0485,.2282-.0917,.4563-.1297,.6844-.0275,.1798-.0491,.3558-.0708,.5356v.1063c-.0177,.1527-.0275,.3074-.0334,.4659-.0157,.2185-.0216,.4408-.0216,.6574-.0038,2.1196,.588,4.1991,1.71,6.0088,.0806,.1276,.1612,.2591,.2477,.3867,.1081,.1605,.2162,.3132,.3282,.4679,.2319,.3016,.4698,.5935,.7292,.8738,.1278,.1392,.2575,.2765,.3931,.4099,.2103,.2107,.4304,.4118,.6624,.6148,.1199,.1005,.2378,.1933,.3558,.2919,.8419,.6629,1.7724,1.2087,2.7655,1.6221,.3524,.1478,.7126,.2768,1.079,.3867,2.2832,.6934,4.7259,.6934,7.0091,0,.3657-.1102,.7253-.2392,1.0771-.3867h0c1.0002-.4114,1.9375-.9573,2.7852-1.6221,.1199-.0966,.2378-.1933,.3557-.2919,.232-.203,.4541-.4041,.6644-.6148,.1336-.1334,.2634-.2707,.3931-.4099,.2594-.2803,.4953-.58,.7272-.8738,.114-.1547,.2221-.3074,.3302-.4679,.0846-.1276,.1671-.2591,.2477-.3867,1.1206-1.8102,1.7116-3.8895,1.7081-6.0088-.002-.2166-.0059-.4292-.0236-.6574Zm-11.7932,.8797c.5346,0,2.0441,.0967,2.0441,.58,0,.8642-1.8652,1.4848-2.0441,1.4365-.171,.0387-2.0442-.5781-2.0442-1.4423,0-.4775,1.5174-.5742,2.0521-.5742h-.0079Zm-6.844-5.2394c1.024-.667,3.2883-1.0594,4.1768,.0909,0,0,1.1223,1.1774,.0216,2.407s-1.9538,2.3761-2.2034,3.3737c-.2496,.9976-.6584,1.4056-1.4722,1.4094-.8137,.0039-2.394-1.2296-2.5886-3.2016-.1946-1.972,1.0457-3.4162,2.0658-4.0794Zm9.7471,7.9654c0,1.3843-1.2992,2.5134-2.8952,2.5134s-2.8953-1.1194-2.8953-2.5134h5.7905Zm3.4338-.6844c-.8138,0-1.2187-.4118-1.4703-1.4094-.2515-.9976-1.1125-2.1421-2.2053-3.3737-1.0928-1.2315,.0216-2.407,.0216-2.407,.8885-1.16,3.1449-.7579,4.1768-.0909,1.0319,.667,2.2662,2.1054,2.0658,4.0794-.2005,1.9739-1.773,3.2152-2.5886,3.2016h0Zm1.425-13.2047c.4425-.0024,.8755,.127,1.2419,.3711,.3665,.2441,.6493,.5915,.8113,.9966s.1957,.8489,.0965,1.2732c-.0991,.4243-.3264,.8091-.652,1.104-.0432-.058-.0924-.1102-.1396-.1643-.1199-.1431-.2437-.2803-.3714-.4195-.1278-.1392-.2536-.2687-.3931-.4021-.1396-.1334-.2693-.2591-.4089-.3867-.1395-.1276-.281-.2475-.4265-.3654-.1454-.1179-.2968-.2339-.4481-.3441-.1514-.1102-.2791-.2069-.4266-.3016-.0126-.0147-.0288-.026-.0471-.0329-.1455-.1005-.2968-.1933-.4482-.2803-.0648-.0425-.1297-.0793-.1965-.1179,.2025-.2873,.4728-.522,.7877-.6839,.315-.162,.6652-.2464,1.0206-.246h0ZM5.7157,6.728c-.0003-.4602,.149-.9085,.4259-1.2795,.277-.371,.6672-.6452,1.1137-.7827,.4465-.1375,.9261-.1311,1.3686,.0184,.4426,.1494,.825,.434,1.0916,.8123-.0649,.0387-.1297,.0754-.1966,.1179-.1494,.0889-.3007,.1798-.4462,.2803-.0191,.0063-.0361,.0177-.0491,.0329-.1455,.0947-.285,.1933-.4265,.3016-.1415,.1083-.2988,.2223-.4442,.3441-.1454,.1218-.2909,.2397-.4265,.3654-.1356,.1257-.2752,.2494-.4108,.3867-.1356,.1373-.2634,.2649-.3931,.4021-.1297,.1373-.2398,.2726-.3656,.4157-.0491,.0541-.0983,.1063-.1415,.1643-.2207-.2019-.3967-.4463-.5171-.7181-.1204-.2718-.1825-.565-.1826-.8615h0Zm14.3995,5.0808c-.1217,0-.2408,.0356-.342,.1022-.1012,.0665-.18,.1612-.2266,.2719-.0465,.1106-.0585,.2324-.0346,.3498,.0239,.1175,.0827,.2253,.1689,.3099,.0862,.0845,.196,.142,.3155,.1651,.1195,.0232,.2432,.0109,.3556-.0352,.1124-.0461,.2083-.124,.2757-.2237,.0674-.0998,.1031-.217,.1027-.3368,0-.0793-.0159-.1579-.0468-.2312-.031-.0733-.0763-.1399-.1335-.196-.0571-.056-.125-.1004-.1996-.1306s-.1546-.0456-.2353-.0454h0Zm-8.8134,1.2084c.1217,0,.2406-.0355,.3418-.102,.1011-.0665,.18-.161,.2266-.2716,.0465-.1106,.0587-.2322,.035-.3496-.0238-.1174-.0824-.2252-.1684-.3099-.086-.0846-.1957-.1422-.315-.1656-.1193-.0233-.243-.0113-.3555,.0345-.1124,.0458-.2085,.1233-.2761,.2228-.0676,.0996-.1036,.2166-.1036,.3362,0,.1605,.0648,.3145,.1802,.4279,.1153,.1135,.2718,.1773,.435,.1773h0Zm8.8134-1.2084c-.1217,0-.2408,.0356-.342,.1022-.1012,.0665-.18,.1612-.2266,.2719-.0465,.1106-.0585,.2324-.0346,.3498,.0239,.1175,.0827,.2253,.1689,.3099,.0862,.0845,.196,.142,.3155,.1651,.1195,.0232,.2432,.0109,.3556-.0352,.1124-.0461,.2083-.124,.2757-.2237,.0674-.0998,.1031-.217,.1027-.3368,0-.0793-.0159-.1579-.0468-.2312-.031-.0733-.0763-.1399-.1335-.196-.0571-.056-.125-.1004-.1996-.1306s-.1546-.0456-.2353-.0454h0Zm-8.8134,0c-.1219-.0003-.2411,.0349-.3426,.1012-.1014,.0664-.1806,.1609-.2274,.2715-.0468,.1107-.0591,.2325-.0355,.3501,.0237,.1175,.0823,.2255,.1685,.3103,.0862,.0847,.196,.1424,.3155,.1657s.2434,.0111,.3559-.0349c.1124-.0461,.2085-.1239,.276-.2237,.0674-.0998,.1032-.2171,.1028-.337,0-.1599-.0646-.3134-.1796-.4265s-.271-.1767-.4336-.1767h0Zm8.8134,0c-.1217,0-.2408,.0356-.342,.1022-.1012,.0665-.18,.1612-.2266,.2719-.0465,.1106-.0585,.2324-.0346,.3498,.0239,.1175,.0827,.2253,.1689,.3099,.0862,.0845,.196,.142,.3155,.1651,.1195,.0232,.2432,.0109,.3556-.0352,.1124-.0461,.2083-.124,.2757-.2237,.0674-.0998,.1031-.217,.1027-.3368,0-.0793-.0159-.1579-.0468-.2312-.031-.0733-.0763-.1399-.1335-.196-.0571-.056-.125-.1004-.1996-.1306s-.1546-.0456-.2353-.0454h0Zm-8.8134,0c-.1219-.0003-.2411,.0349-.3426,.1012-.1014,.0664-.1806,.1609-.2274,.2715-.0468,.1107-.0591,.2325-.0355,.3501,.0237,.1175,.0823,.2255,.1685,.3103,.0862,.0847,.196,.1424,.3155,.1657s.2434,.0111,.3559-.0349c.1124-.0461,.2085-.1239,.276-.2237,.0674-.0998,.1032-.2171,.1028-.337,0-.1599-.0646-.3134-.1796-.4265s-.271-.1767-.4336-.1767h0Z"></path><path class="c" d="M39.0393,12.1356h2.2172v-2.0223c0-2.4514,1.3758-4.0871,4.1551-4.0871l1.3857,.2726v2.4515l-1.5233-.2726c-.8314,0-1.2481,.5452-1.2481,1.3533v2.3045h2.7714v2.4515h-2.7694v10.3531h-2.7714V14.5871h-2.2172v-2.4515Z"></path><path class="c" d="M53.9833,11.863c3.6028,0,6.7889,2.7241,6.7889,6.6759s-3.1822,6.6758-6.7889,6.6758-6.787-2.724-6.787-6.6758,3.1861-6.6759,6.787-6.6759Zm0,10.9003c2.6318,0,4.0175-1.9083,4.0175-4.2244s-1.3936-4.2321-4.0175-4.2321-4.0176,1.9082-4.0176,4.2244,1.3857,4.2321,4.0176,4.2321h0Z"></path><path class="c" d="M68.7935,11.863c3.6009,0,6.787,2.7241,6.787,6.6759s-3.196,6.6758-6.787,6.6758-6.7889-2.724-6.7889-6.6758,3.1763-6.6759,6.7889-6.6759Zm0,10.9003c2.6319,0,4.0176-1.9083,4.0176-4.2244s-1.3956-4.2321-4.0176-4.2321-4.0175,1.9082-4.0175,4.2244,1.3758,4.2321,4.0175,4.2321h0Z"></path><path class="c" d="M90.094,24.9402h-2.4943l-.2771-1.0885-.1376-.1373-.1396,.1373c-.8314,.8178-2.2171,1.3534-3.6008,1.3534-3.6028,0-6.6494-2.7241-6.6494-6.6759s3.0466-6.6758,6.6494-6.6758c1.3562,0,2.7694,.5452,3.6008,1.3533l.1396,.1373,.1376-.1373V6.0262h2.7714V24.9402Zm-6.5118-10.6334c-2.6319,0-4.0451,1.9082-4.0451,4.2243s1.4132,4.2244,4.0451,4.2244c2.3586,0,4.0175-1.9082,4.0175-4.2244s-1.6628-4.2243-4.0175-4.2243Z"></path><path class="c" d="M92.8713,12.1356h2.4942l.2477,1.0885,.1671,.1372,.1395-.1372c.8295-.8159,2.2152-1.3534,3.6009-1.3534,3.6013,0,6.6493,2.7241,6.6493,6.6759s-3.048,6.6758-6.6493,6.6758c-1.3582,0-2.7714-.5432-3.6009-1.3533l-.1395-.1373-.1671,.1373v6.8518h-2.7419V12.1356Zm6.5118,10.6334c2.6319,0,4.0159-1.9082,4.0159-4.2244s-1.388-4.2379-4.0159-4.2379c-2.3587,0-4.0176,1.9083-4.0176,4.2244s1.6609,4.2321,4.0176,4.2321v.0058Z"></path><path class="c" d="M113.15,16.9903h2.268v-.5568c0-1.5467-1.069-2.2562-2.555-2.2562-1.201,0-2.009,.5645-2.453,1.7187l-2.477-.5143c.549-2.1808,2.451-3.565,4.955-3.565,3.495,0,5.242,1.6936,5.242,5.104v8.0195h-2.295l-.262-1.6897c-.914,1.2566-2.27,1.8985-4.069,1.8985-2.321,0-4.043-1.3533-4.043-3.9247,.002-2.6429,2.273-4.234,5.689-4.234Zm-1.18,5.8c.878,.0137,1.73-.2873,2.398-.8468,.706-.58,1.044-1.3842,1.044-2.436v-.2842h-2.367c-1.67,0-2.712,.7733-2.712,2.001,0,.9222,.574,1.5641,1.643,1.5641l-.006,.0019Z"></path><path class="c" d="M120.684,12.1356h2.496l.277,1.0885,.139,.1372,.138-.1372c.554-.8159,1.94-1.3534,3.047-1.3534,3.325,0,5.265,2.1789,5.265,5.1775v7.892h-2.771v-7.8997c-.083-1.74-.942-2.726-2.77-2.726-.788,.0057-1.544,.309-2.111,.8473-.567,.5383-.903,1.2703-.937,2.045v7.7334h-2.773V12.1356Z"></path><path class="c" d="M147.13,24.9402h-2.493l-.277-1.0885-.139-.1373-.138,.1373c-.831,.8178-2.217,1.3534-3.603,1.3534-3.601,0-6.649-2.7241-6.649-6.6759s3.048-6.6758,6.649-6.6758c1.358,0,2.772,.5452,3.603,1.3533l.138,.1373,.139-.1373V6.0262h2.77V24.9402Zm-6.51-10.6334c-2.632,0-4.045,1.9082-4.045,4.2243s1.413,4.2244,4.045,4.2244c2.359,0,4.017-1.9082,4.017-4.2244s-1.662-4.2243-4.017-4.2243Z"></path><path class="c" d="M155.017,16.9903h2.271v-.5568c0-1.5467-1.07-2.2562-2.556-2.2562-1.199,0-2.006,.5645-2.451,1.7187l-2.476-.5143c.546-2.1808,2.451-3.565,4.955-3.565,3.495,0,5.242,1.6936,5.242,5.104v8.0195h-2.298l-.265-1.6897c-.912,1.2566-2.268,1.8985-4.069,1.8985-2.319,0-4.041-1.3533-4.041-3.9247,.004-2.6429,2.272-4.234,5.688-4.234Zm-1.179,5.8c.878,.014,1.731-.287,2.4-.8468,.704-.58,1.044-1.3842,1.044-2.436v-.2842h-2.369c-1.669,0-2.712,.7733-2.712,2.001,0,.9222,.574,1.5641,1.643,1.5641l-.006,.0019Z"></path></svg> 